<?xml version="1.0" standalone="no"?>
<!DOCTYPE svg PUBLIC "-//W3C//DTD SVG 20010904//EN"
 "http://www.w3.org/TR/2001/REC-SVG-20010904/DTD/svg10.dtd">
<svg version="1.0" xmlns="http://www.w3.org/2000/svg"
 width="575.000000pt" height="89.000000pt" viewBox="0 0 575.000000 89.000000"
 preserveAspectRatio="xMidYMid meet">

<g transform="translate(0.000000,89.000000) scale(0.100000,-0.100000)"
fill="#000000" stroke="none">
<path d="M115 871 c-98 -45 -104 -71 -104 -426 0 -355 6 -381 104 -426 37 -17
72 -19 410 -19 339 0 373 2 411 19 74 33 108 101 102 201 l-3 55 -105 0 -105
0 -3 -32 -3 -33 -295 0 -294 0 0 235 0 235 294 0 295 0 3 -32 3 -33 105 0 105
0 3 52 c6 101 -29 171 -102 204 -38 17 -72 19 -411 19 -338 0 -373 -2 -410
-19z"/>
<path d="M1224 871 c-74 -33 -108 -101 -102 -201 l3 -55 105 0 105 0 3 33 3
32 295 0 294 0 0 -235 0 -235 -294 0 -295 0 -3 33 -3 32 -105 0 -105 0 -3 -55
c-6 -100 28 -168 102 -201 38 -17 72 -19 411 -19 365 0 371 0 415 23 52 26 78
59 90 113 12 51 12 567 0 618 -12 54 -38 87 -90 114 -44 22 -50 22 -415 22
-339 0 -373 -2 -411 -19z"/>
<path d="M2504 730 c-89 -28 -181 -123 -205 -213 -15 -57 -7 -184 15 -227 25
-48 64 -88 111 -113 34 -19 56 -22 140 -22 131 1 177 17 186 65 21 100 21 120
2 120 -12 0 -27 -18 -43 -52 -33 -70 -66 -92 -133 -92 -75 0 -134 36 -173 106
-26 48 -29 61 -29 148 0 114 21 164 87 207 35 24 52 28 109 28 88 0 123 -23
127 -83 2 -33 7 -42 21 -42 19 0 22 9 36 111 6 39 4 47 -12 53 -30 12 -206 16
-239 6z"/>
<path d="M3023 598 c-5 -7 -43 -95 -83 -196 -52 -132 -79 -188 -96 -199 -48
-31 -31 -43 61 -43 47 0 88 0 93 -1 4 0 8 7 10 15 3 12 -5 16 -33 16 -45 0
-53 19 -34 74 15 45 32 53 121 55 l46 1 17 -50 c19 -58 10 -80 -32 -80 -18 0
-24 -5 -21 -18 2 -9 9 -17 16 -16 6 1 50 2 97 3 69 1 85 4 85 16 0 9 -11 20
-25 25 -32 12 -40 32 -103 240 -49 162 -51 165 -79 168 -17 2 -34 -3 -40 -10z
m63 -240 c-18 -12 -106 -9 -106 3 0 13 47 146 57 163 4 6 19 -27 34 -74 18
-59 23 -87 15 -92z"/>
<path d="M3340 591 c0 -13 8 -21 23 -23 22 -3 22 -6 25 -163 3 -186 1 -202
-33 -211 -14 -4 -25 -13 -25 -23 0 -15 11 -17 93 -13 107 4 117 6 117 27 0 11
-11 15 -39 15 -48 0 -55 16 -46 95 l7 54 72 3 c65 3 71 5 74 26 3 21 0 22 -73
22 l-76 0 3 78 3 77 58 3 c65 3 87 -8 87 -44 0 -17 6 -24 19 -24 14 0 20 10
25 46 3 26 6 53 6 60 0 11 -32 14 -160 14 -151 0 -160 -1 -160 -19z"/>
<path d="M3747 603 c-16 -15 -6 -33 18 -33 l25 0 0 -180 0 -179 -30 -16 c-36
-19 -42 -51 -7 -41 12 3 59 6 105 6 74 0 82 2 82 19 0 16 -8 20 -37 23 l-38 3
-3 73 -3 72 74 0 c72 0 75 1 79 25 5 25 5 25 -73 25 l-79 0 0 34 c0 18 3 54 6
80 l7 47 66 -3 66 -3 3 -32 c2 -25 8 -33 22 -33 14 0 21 10 25 38 3 20 8 47
11 60 l4 22 -158 0 c-87 0 -162 -3 -165 -7z"/>
<path d="M4140 591 c0 -14 8 -21 28 -23 l27 -3 3 -164 c2 -134 0 -168 -13
-187 -8 -13 -22 -24 -30 -24 -9 0 -15 -9 -15 -21 0 -17 4 -20 23 -15 12 3 55
6 95 6 64 0 72 2 72 19 0 14 -5 18 -20 14 -11 -3 -27 1 -36 8 -15 12 -16 33
-10 174 8 182 10 195 36 195 9 0 20 9 23 20 5 19 0 20 -89 20 -86 0 -94 -2
-94 -19z"/>
<path d="M4407 603 c-15 -15 -5 -32 21 -38 16 -3 42 -20 59 -38 38 -41 103
-132 103 -144 0 -10 -150 -166 -183 -191 -33 -25 -17 -32 68 -32 67 0 85 3 85
14 0 8 -9 18 -20 21 -11 3 -20 12 -20 20 0 14 87 125 98 125 10 -1 92 -116 92
-129 0 -6 -14 -14 -30 -18 -21 -4 -30 -11 -28 -22 2 -9 9 -16 16 -15 6 1 55 2
107 3 88 1 95 3 95 21 0 13 -7 20 -19 20 -28 0 -68 36 -127 116 -30 40 -54 75
-54 78 0 14 127 151 157 168 58 35 44 48 -52 48 -71 0 -85 -3 -85 -16 0 -9 9
-18 20 -21 29 -8 25 -24 -22 -88 l-43 -57 -21 27 c-12 15 -32 45 -44 66 l-22
39 31 11 c17 6 31 17 31 25 0 11 -21 14 -103 14 -57 0 -107 -3 -110 -7z"/>
<path d="M4950 591 c0 -13 8 -21 23 -23 22 -3 22 -5 25 -172 2 -147 0 -171
-14 -187 -10 -11 -23 -19 -31 -19 -7 0 -13 -8 -13 -17 0 -17 14 -18 167 -17
l168 2 11 61 c6 34 9 63 7 65 -11 10 -43 -9 -43 -25 0 -11 -9 -28 -20 -39 -18
-18 -31 -20 -93 -18 l-72 3 -3 74 c-2 53 1 77 10 82 7 5 46 9 86 9 68 0 72 1
72 23 0 21 -3 22 -80 18 l-81 -3 3 73 3 74 63 3 c70 3 92 -7 92 -44 0 -17 6
-24 19 -24 15 0 21 10 26 43 3 23 9 50 11 60 5 16 -8 17 -165 17 -162 0 -171
-1 -171 -19z"/>
<path d="M5410 591 c0 -13 8 -21 23 -23 22 -3 22 -5 25 -170 l2 -168 -30 -31
c-16 -18 -30 -35 -30 -38 0 -3 71 -6 157 -6 l157 1 11 72 c11 71 11 72 -11 72
-17 0 -23 -8 -28 -35 -9 -46 -39 -65 -103 -65 -48 0 -53 2 -59 26 -9 37 6 317
18 332 6 6 17 12 24 12 8 0 14 9 14 20 0 18 -7 20 -85 20 -77 0 -85 -2 -85
-19z"/>
<path d="M604 516 c-47 -47 -47 -95 0 -142 l34 -34 442 0 442 0 34 34 c47 47
47 95 0 142 l-34 34 -442 0 -442 0 -34 -34z"/>
</g>
</svg>
